<svg xmlns="http://www.w3.org/2000/svg" viewBox="0 0 422.97 96.77"><polygon points="173.09 56.99 166.49 56.99 167.86 52.26 164.44 52.26 159.4 69.5 161.65 69.5 159.84 75.65 146 75.65 147.81 69.5 150.01 69.5 155.05 52.26 151.53 52.26 150.16 56.99 143.51 56.99 146.69 46.1 176.27 46.1 173.09 56.99" style="fill:#ffd600"/><path d="M146.59,75.22h12.93l1.55-5.28H159.4a.44.44,0,0,1-.42-.56l5-17.25a.43.43,0,0,1,.42-.31h3.42a.43.43,0,0,1,.35.17.45.45,0,0,1,.07.39l-1.21,4.17h5.7l2.92-10H147l-2.93,10h5.74l1.28-4.41a.44.44,0,0,1,.42-.32h3.52a.43.43,0,0,1,.35.17.45.45,0,0,1,.07.39l-5,17.24a.43.43,0,0,1-.42.32h-1.87Zm13.25.87H146a.43.43,0,0,1-.41-.56l1.81-6.15a.43.43,0,0,1,.41-.32h1.88l4.78-16.37h-2.61l-1.28,4.42a.43.43,0,0,1-.42.31h-6.65a.43.43,0,0,1-.35-.17.45.45,0,0,1-.07-.39L146.27,46a.43.43,0,0,1,.42-.31h29.58a.43.43,0,0,1,.35.17.45.45,0,0,1,.07.39l-3.18,10.88a.43.43,0,0,1-.42.31h-6.6a.46.46,0,0,1-.35-.17.48.48,0,0,1-.07-.39l1.21-4.17h-2.51L160,69.06h1.67a.44.44,0,0,1,.42.56l-1.81,6.16a.43.43,0,0,1-.42.31" style="fill:#10284a"/><path d="M189,52.26l-1.76,6h5.38l1.76-6Zm7.05-6.16c3.42,0,7.43.42,7.43,4.15a7.63,7.63,0,0,1-.34,2.3L202.43,55c-1,3.43-3,4.85-6.84,5.86,2.34.25,4.4.88,4.4,3.3a9.52,9.52,0,0,1-.54,2.73l-.78,2.59h2.15l-1.76,6.15h-7.78c-1.41,0-3-.25-3-1.75a8.51,8.51,0,0,1,.49-2.18l2.3-8h-5.33l-3.52,12H170.5l1.81-6.15h2.2l5-17.24h-2.2l1.76-6.16Z" style="fill:#ffd600"/><path d="M187.86,57.81h4.47l1.5-5.12h-4.47Zm4.79.87h-5.38a.44.44,0,0,1-.42-.56l1.76-6a.45.45,0,0,1,.42-.31h5.38a.43.43,0,0,1,.35.17.46.46,0,0,1,.07.39l-1.76,6a.43.43,0,0,1-.42.32m-6.94,4.57H191a.44.44,0,0,1,.35.17.43.43,0,0,1,.07.38L189,72.22a6.46,6.46,0,0,0-.35,1.68c0,.56.27,1.32,2.59,1.32h7.45l1.51-5.28h-1.57a.44.44,0,0,1-.35-.18.4.4,0,0,1-.07-.38l.78-2.6a8.9,8.9,0,0,0,.52-2.59c0-1.76-1.12-2.57-4-2.88a.43.43,0,0,1-.07-.85c3.91-1,5.62-2.49,6.54-5.57l.74-2.47a7.16,7.16,0,0,0,.32-2.17c0-3.27-3.54-3.71-7-3.71H179.44l-1.51,5.28h1.62a.44.44,0,0,1,.35.17.49.49,0,0,1,.07.39l-5,17.24a.44.44,0,0,1-.42.32h-1.87l-1.56,5.28h10.78l3.43-11.66a.42.42,0,0,1,.42-.31m13.35,12.84h-7.78c-2.3,0-3.47-.74-3.47-2.19a6.77,6.77,0,0,1,.4-1.94l.11-.36,2.14-7.48H186l-3.42,11.66a.45.45,0,0,1-.42.31H170.5a.43.43,0,0,1-.35-.17.45.45,0,0,1-.07-.39l1.81-6.15a.45.45,0,0,1,.42-.32h1.87L179,52.69h-1.62a.43.43,0,0,1-.35-.17.43.43,0,0,1-.07-.38L178.69,46a.43.43,0,0,1,.42-.31h17c2.36,0,7.87,0,7.87,4.58a7.89,7.89,0,0,1-.36,2.43l-.73,2.46a7.85,7.85,0,0,1-5.4,5.62c1.61.43,3,1.34,3,3.43a9.61,9.61,0,0,1-.56,2.85l-.61,2h1.57a.44.44,0,0,1,.42.56l-1.76,6.15a.45.45,0,0,1-.42.32" style="fill:#10284a"/><polygon points="223.55 52.26 221.3 52.26 216.27 69.5 218.52 69.5 216.71 75.65 202.82 75.65 204.63 69.5 206.88 69.5 211.87 52.26 209.67 52.26 211.47 46.1 225.36 46.1 223.55 52.26" style="fill:#ffd600"/><path d="M203.4,75.22h13l1.55-5.28h-1.66a.44.44,0,0,1-.42-.56l5-17.25a.45.45,0,0,1,.42-.31h1.93l1.55-5.28h-13l-1.55,5.28h1.62a.46.46,0,0,1,.35.17.49.49,0,0,1,.07.39l-5,17.24a.45.45,0,0,1-.42.32H205Zm13.31.87H202.82a.43.43,0,0,1-.35-.17.45.45,0,0,1-.07-.39l1.81-6.15a.45.45,0,0,1,.42-.32h1.92l4.74-16.37h-1.62a.43.43,0,0,1-.35-.17.42.42,0,0,1-.07-.39L211.06,46a.42.42,0,0,1,.42-.31h13.88a.43.43,0,0,1,.35.17.45.45,0,0,1,.07.39L224,52.38a.43.43,0,0,1-.42.31h-1.92l-4.78,16.37h1.67a.44.44,0,0,1,.42.56l-1.81,6.16a.45.45,0,0,1-.42.31" style="fill:#10284a"/><polygon points="254.36 56.99 247.76 56.99 249.13 52.26 245.7 52.26 240.67 69.5 242.91 69.5 241.11 75.65 227.27 75.65 229.08 69.5 231.28 69.5 236.31 52.26 232.79 52.26 231.43 56.99 224.78 56.99 227.95 46.1 257.54 46.1 254.36 56.99" style="fill:#ffd600"/><path d="M227.85,75.22h12.93l1.55-5.28h-1.66a.44.44,0,0,1-.42-.56l5-17.25a.43.43,0,0,1,.41-.31h3.43a.46.46,0,0,1,.35.17.49.49,0,0,1,.07.39l-1.21,4.17H254l2.93-10H228.28l-2.92,10h5.74l1.28-4.41a.43.43,0,0,1,.41-.32h3.53a.43.43,0,0,1,.41.56l-5,17.24a.45.45,0,0,1-.42.32H229.4Zm13.26.87H227.27a.43.43,0,0,1-.35-.17.45.45,0,0,1-.07-.39l1.81-6.15a.43.43,0,0,1,.42-.32H231l4.78-16.37h-2.61l-1.28,4.42a.43.43,0,0,1-.41.31h-6.65a.43.43,0,0,1-.35-.17.42.42,0,0,1-.07-.39L227.54,46a.42.42,0,0,1,.41-.31h29.59a.46.46,0,0,1,.35.17.48.48,0,0,1,.07.39l-3.18,10.88a.45.45,0,0,1-.42.31h-6.6a.43.43,0,0,1-.35-.17.45.45,0,0,1-.07-.39l1.21-4.17H246l-4.78,16.37h1.67a.47.47,0,0,1,.35.18.43.43,0,0,1,.06.38l-1.8,6.16a.45.45,0,0,1-.42.31" style="fill:#10284a"/><path d="M267.46,52.26c-1,2.68-3.57,11.09-5.13,17.24h5.28c1.71-5.73,3.37-11.51,5-17.24Zm10.66,13.81c-2.1,7.32-4.15,9.58-10.8,9.58h-6.9c-4.69,0-7.48-.62-7.48-4.22a19,19,0,0,1,1-5.07l2.73-9.46c2.21-7.53,3.18-10.8,10.86-10.8h7.73c3.22,0,6.94.42,6.94,4.15a15.82,15.82,0,0,1-.83,4.31Z" style="fill:#ffd600"/><path d="M262.89,69.06h4.39c1.4-4.67,2.78-9.44,4.11-14.05l.67-2.32h-4.29c-1,2.89-3.38,10.56-4.88,16.37m4.72.88h-5.28a.44.44,0,0,1-.35-.17.47.47,0,0,1-.08-.38c1.56-6.09,4.16-14.55,5.15-17.28a.44.44,0,0,1,.41-.29h5.19a.43.43,0,0,1,.41.56l-.83,2.87c-1.36,4.72-2.78,9.6-4.2,14.38a.45.45,0,0,1-.42.31m-.05-23.4c-7.37,0-8.27,3.07-10.44,10.48l-3,10.21a15.39,15.39,0,0,0-.79,4.2c0,2.87,1.71,3.79,7,3.79h6.9c6.21,0,8.24-1.82,10.38-9.27L281,54.33a15.08,15.08,0,0,0,.78-4.08c0-3.26-3.12-3.71-6.5-3.71Zm-.24,29.55h-6.9c-4.17,0-7.92-.36-7.92-4.66a16.33,16.33,0,0,1,.83-4.44l.22-.75,2.74-9.46c2.16-7.4,3.24-11.11,11.27-11.11h7.73c2.2,0,7.38,0,7.38,4.58a15.58,15.58,0,0,1-.82,4.32l-3.31,11.62c-2.23,7.77-4.64,9.9-11.22,9.9" style="fill:#10284a"/><polygon points="317.14 52.26 314.99 52.26 309.95 69.5 312.15 69.5 310.34 75.65 299.34 75.65 294.6 58.37 289.81 75.65 279.29 75.65 281.1 69.5 283.31 69.5 288.29 52.26 286.09 52.26 287.9 46.1 298.9 46.1 303.45 64.14 308.44 46.1 318.95 46.1 317.14 52.26" style="fill:#ffd600"/><path d="M299.67,75.22H310l1.55-5.28H310a.44.44,0,0,1-.42-.56l5-17.25a.45.45,0,0,1,.42-.31h1.82l1.56-5.28h-9.6l-4.9,17.72a.43.43,0,0,1-.42.32h0a.43.43,0,0,1-.41-.33l-4.47-17.71H288.23l-1.56,5.28h1.62a.43.43,0,0,1,.35.17.45.45,0,0,1,.07.39l-5,17.24a.43.43,0,0,1-.42.32h-1.87l-1.55,5.28h9.6l4.7-17a.44.44,0,0,1,.84,0Zm10.67.87h-11a.44.44,0,0,1-.42-.32L294.6,60l-4.37,15.76a.44.44,0,0,1-.42.32H279.29a.43.43,0,0,1-.41-.56l1.81-6.15a.43.43,0,0,1,.41-.32H283l4.73-16.37h-1.62a.43.43,0,0,1-.35-.17.45.45,0,0,1-.07-.39L287.48,46a.44.44,0,0,1,.42-.31h11a.44.44,0,0,1,.43.33l4.14,16.44L308,46a.43.43,0,0,1,.42-.32H319a.43.43,0,0,1,.35.17.45.45,0,0,1,.07.39l-1.81,6.15a.44.44,0,0,1-.42.31h-1.82l-4.79,16.37h1.62a.44.44,0,0,1,.35.18.4.4,0,0,1,.07.38l-1.81,6.16a.43.43,0,0,1-.42.31" style="fill:#10284a"/><path d="M343.5,54.81h-8.32l.74-2.55h-5.38l-1.62,5.52h6.31c3.28,0,6.95.17,6.95,3.85a11.06,11.06,0,0,1-.59,3.27l-1.13,3.85c-1.22,4.18-3.42,6.9-9.58,6.9h-16l2.59-9h8.9l-.83,2.84h5.38l1.76-5.94h-6.7c-3.52,0-6.55-.34-6.55-4a8.3,8.3,0,0,1,.39-2.39l1.37-4.73c1.22-4.27,4.06-6.32,9.29-6.32H346Z" style="fill:#ffd600"/><path d="M315.42,75.22h15.46c6,0,8-2.64,9.17-6.59l1.12-3.86a10.37,10.37,0,0,0,.57-3.14c0-3.16-2.95-3.41-6.51-3.41h-6.31a.43.43,0,0,1-.34-.18.4.4,0,0,1-.07-.38l1.61-5.53a.43.43,0,0,1,.42-.31h5.38a.46.46,0,0,1,.35.17.48.48,0,0,1,.07.39l-.58,2h7.41l2.29-7.83h-15c-4.95,0-7.68,1.85-8.87,6l-1.37,4.73a7.72,7.72,0,0,0-.37,2.27c0,3,2.15,3.58,6.11,3.58h6.7a.44.44,0,0,1,.42.56l-1.76,5.94a.45.45,0,0,1-.42.32H325.5a.45.45,0,0,1-.35-.18.43.43,0,0,1-.07-.38l.67-2.29h-8Zm15.46.87h-16a.44.44,0,0,1-.35-.17.48.48,0,0,1-.07-.39l2.59-9a.45.45,0,0,1,.42-.31h8.9a.43.43,0,0,1,.35.17.45.45,0,0,1,.07.39l-.67,2.28h4.47L332.06,64h-6.12c-2.78,0-7,0-7-4.45a8.59,8.59,0,0,1,.41-2.51l1.37-4.73c1.3-4.52,4.38-6.63,9.71-6.63H346a.43.43,0,0,1,.35.17.45.45,0,0,1,.07.39l-2.55,8.7a.43.43,0,0,1-.41.32h-8.32a.44.44,0,0,1-.42-.56l.58-2h-4.47l-1.36,4.66h5.72c2.76,0,7.38,0,7.38,4.28A11.4,11.4,0,0,1,342,65l-1.13,3.84c-1.09,3.75-3.06,7.22-10,7.22" style="fill:#10284a"/><path d="M180.27,25.08h-1.71l-3.49,12.06c-.95,3.27-2.77,5.36-7.28,5.36h-5.64c-3.32,0-5.28-.75-5.28-2.77a9.06,9.06,0,0,1,.47-2.37l3.6-12.28h-1.71l1.35-4.58h8.66l-5.06,17.42h3.64l5.1-17.42h8.67Z" style="fill:#10284a"/><path d="M198.48,27.61h-5.9l.73-2.53h-3.9a123.5,123.5,0,0,0-3.82,12.84h4l1-3.49h6.19L194.4,42.5H183.55c-2.51,0-5-.34-5-3a17.56,17.56,0,0,1,.77-3.71l2.36-8c1.5-5,2.41-7.32,9-7.32h9.86Z" style="fill:#10284a"/><path d="M219.55,27h-6.19l.55-1.9h-4l-1.2,4.12h4.69c2.44,0,5.17.12,5.17,2.86a8,8,0,0,1-.44,2.43l-.83,2.87c-.91,3.12-2.55,5.14-7.14,5.14H198.22l1.93-6.7h6.63l-.62,2.12h4l1.31-4.42h-5c-2.63,0-4.88-.25-4.88-3a6.07,6.07,0,0,1,.29-1.77l1-3.52c.91-3.18,3-4.71,6.91-4.71h11.62Z" style="fill:#10284a"/><path d="M228.55,36.8H225L224.36,39h3.57Zm5.93,5.7h-7.57l.51-1.74-2.84,1.74h-3.27c-1.06,0-2.66,0-2.66-1.71a5.37,5.37,0,0,1,.18-1.22l.76-2.8c.59-2.12,2.41-2.68,4.23-2.68h5.49l.77-2.77h-3.46L226.11,33h-5.35l.47-1.75a4.23,4.23,0,0,1,4.55-3.45h7.54c1.6,0,3.09.4,3.09,2.11a3.51,3.51,0,0,1-.14,1l-2.22,7.61h1.6Z" style="fill:#10284a"/><path d="M254.54,38.54l-1.16,4H245.7l3.13-10.72h-3L242.71,42.5H236.6l3.13-10.72h-1.5l1.13-4H247L246.35,30l3.31-2.19h2c1.57,0,3.64.1,3.64,1.87a8,8,0,0,1-.4,2.09l-2,6.76Z" style="fill:#10284a"/><path d="M269.4,25.08l-3.72,12.84h3.46c1.38-4.24,2.69-8.54,3.64-12.84Zm5.09-4.58c2.62,0,5.35.1,5.35,3a24,24,0,0,1-1.16,5.33L277,34.65c-1.68,5.64-2.59,7.85-8.63,7.85H255.93l1.31-4.58h1.63l3.75-12.84H261l1.34-4.58Z" style="fill:#10284a"/><path d="M285.63,26A2.5,2.5,0,0,1,283,23.68a2.69,2.69,0,0,1,5.32,0A2.5,2.5,0,0,1,285.63,26m-.29,12.59h1.45l-1.12,4h-9l1.13-4h1.42l2-6.76h-1.64l1.13-4h7.72Z" style="fill:#10284a"/><path d="M296.73,31.35c-.21.68-.4,1.37-.58,2.08h2.26l.62-2.08Zm6.41,6-.65,2.15c-.73,2.43-1.79,3-4.85,3h-6.29c-1.61,0-3.06-.31-3.06-1.93a16.35,16.35,0,0,1,.73-3.52l1.56-5.45c.69-2.4,1.79-3.78,4.88-3.78h5.61c2,0,3.75.19,3.75,2.09a3.91,3.91,0,0,1-.19,1.09l-1.49,5.18h-7.86c-.26.93-.55,1.87-.73,2.8h2.26l.47-1.65Z" style="fill:#10284a"/><path d="M313,31.78a56,56,0,0,0-2,6.76h2.88l2-6.76Zm10.52,0h-1.64L318.15,44.5c-.66,2.21-1.42,3.83-4.52,3.83h-7.35c-1.46,0-3.17-.13-3.17-1.5a6.54,6.54,0,0,1,.33-1.49l.51-1.68h5.57l-.4,1.4H312l1.27-4.37-2.84,1.81h-3.28c-1.42,0-2.62-.25-2.62-1.68a14.2,14.2,0,0,1,.77-3.46l1.31-4.64c1.2-4.27,2.36-4.9,5.06-4.9h3.06l1.6,1.72.51-1.72h7.82Z" style="fill:#10284a"/><path d="M330.63,31.78c-.69,2.25-1.27,4.49-1.82,6.77h2.62c.66-2.22,1.28-4.52,1.86-6.77ZM326.05,42.5c-2.08,0-3.46-.46-3.46-2.24a14.27,14.27,0,0,1,.65-3.46l.88-3.33c.87-3.37,1.67-5.64,6-5.64h5.57c2.4,0,3.78.56,3.78,2.3a10.24,10.24,0,0,1-.4,2.46l-1.13,4.27c-.8,3-1.45,5.64-5.82,5.64Z" style="fill:#10284a"/><path d="M93.28,59.55l-38-2.45a.44.44,0,0,0-.4.21.43.43,0,0,0,0,.44l4.79,8L46.91,73.37c-2-2.56-4.24-5.21-6.67-7.87L72,34.78,78.21,41a.43.43,0,0,0,.7-.15L93.64,2.44a.45.45,0,0,0-.55-.55L54.73,16.62a.41.41,0,0,0-.26.31.43.43,0,0,0,.11.39l6.17,6.17L30,55.28c-2.66-2.42-5.3-4.66-7.87-6.66L29.81,35.9l8,4.79a.42.42,0,0,0,.64-.4L36,2.25a.44.44,0,0,0-.33-.38.4.4,0,0,0-.46.19L19,28.93a.34.34,0,0,0-.05.17l-14.45,24a.42.42,0,0,0,0,.33.41.41,0,0,0,.21.27c4.12,2.18,9.92,6.51,15.57,11.63L.78,85.54l9.2,9.2L30.15,75.25c5.12,5.65,9.46,11.45,11.64,15.57a.41.41,0,0,0,.27.21.42.42,0,0,0,.33,0l24-14.44a.64.64,0,0,0,.18-.06L93.47,60.34a.4.4,0,0,0,.19-.46.42.42,0,0,0-.38-.33" style="fill:#10284a"/><path d="M55.15,16.75h0M38.19,40h0m-.57.36Zm41.16,0h0M5.08,53h0m88.15,7.34Zm-27,15.44ZM42,90.3Zm.53.14h0M1.91,85.53,10,93.61l19.6-18.94a.8.8,0,0,1,1.16,0A89.73,89.73,0,0,1,42.31,90.09L66,75.86a.77.77,0,0,1,.25-.1L92,60.28,55.91,58l4.41,7.34a.81.81,0,0,1-.27,1.11L47.32,74.06a.81.81,0,0,1-1-.2c-2-2.54-4.21-5.17-6.62-7.82a.8.8,0,0,1,0-1.12L71.48,34.2a.8.8,0,0,1,1.13,0L78.37,40,92.58,3l-37,14.21,5.75,5.76a.8.8,0,0,1,0,1.13L30.61,55.84a.8.8,0,0,1-1.12,0c-2.65-2.41-5.28-4.63-7.82-6.62a.81.81,0,0,1-.2-1l7.65-12.73a.81.81,0,0,1,1.11-.27l7.34,4.41L35.25,3.52,19.78,29.27a.72.72,0,0,1-.1.24L5.44,53.22A90.13,90.13,0,0,1,20.82,64.77a.8.8,0,0,1,.26.57.79.79,0,0,1-.22.59Zm8.07,10a.78.78,0,0,1-.57-.24l-9.2-9.2A.81.81,0,0,1,.2,85L19.12,65.41c-5.4-4.82-10.89-8.89-14.79-11a1.22,1.22,0,0,1-.61-.76,1.24,1.24,0,0,1,.13-1L18.23,28.8a1,1,0,0,1,.12-.28L34.5,1.65a1.22,1.22,0,0,1,1.34-.57,1.23,1.23,0,0,1,.94,1.12l2.45,38a1.21,1.21,0,0,1-.59,1.13,1.23,1.23,0,0,1-1.28,0L30.09,37,23.22,48.43c2.21,1.75,4.49,3.67,6.77,5.73L59.62,23.5,54,17.89a1.22,1.22,0,0,1-.33-1.12,1.2,1.2,0,0,1,.76-.9L92.8,1.14a1.24,1.24,0,0,1,1.59,1.59L79.66,41.09a1.2,1.2,0,0,1-.89.76,1.23,1.23,0,0,1-1.13-.33L72,35.91,41.37,65.53c2.06,2.29,4,4.57,5.73,6.78l11.43-6.87-4.38-7.28a1.23,1.23,0,0,1,1.14-1.86l38,2.45A1.23,1.23,0,0,1,93.89,61L67,77.18a1.08,1.08,0,0,1-.29.13L42.8,91.68a1.24,1.24,0,0,1-1,.13,1.21,1.21,0,0,1-.76-.62c-2.07-3.9-6.14-9.38-11-14.78L10.54,95.32a.82.82,0,0,1-.56.23" style="fill:#ffd600"/><polygon points="87.79 11.09 75.26 33.8 77.61 36.15 87.79 11.09" style="fill:#ffd600"/><polygon points="83.71 63.51 42.08 84.14 43.63 86.72 83.71 63.51" style="fill:#ffd600"/><polygon points="34.66 15.75 35.65 36.63 33.1 35.1 34.66 15.75" style="fill:#ffd600"/></svg>