<svg xmlns="http://www.w3.org/2000/svg" viewBox="0 0 422.97 51.85"><path d="M19.59,40l-.69-1.19,18.47-9.52Zm-4-32.74.44,9.63-1.13-.7ZM39.19,5.09,34.67,16.65l-1-1.08Zm2.43,22.36L24.74,26.32a.17.17,0,0,0-.17.09.18.18,0,0,0,0,.2l2.12,3.68L21,33.82c-.88-1.18-1.88-2.4-2.95-3.63L32.2,16l2.74,2.84a.18.18,0,0,0,.17.06.24.24,0,0,0,.14-.12L41.78,1.1a.19.19,0,0,0-.24-.25l-17,6.79a.2.2,0,0,0-.12.15.18.18,0,0,0,.05.17l2.74,2.85L13.55,25.48c-1.18-1.12-2.35-2.15-3.49-3.08l3.4-5.87L17,18.74a.18.18,0,0,0,.2,0,.19.19,0,0,0,.09-.18L16.19,1a.18.18,0,0,0-.14-.17.19.19,0,0,0-.21.09L8.68,13.32a.11.11,0,0,0,0,.08L2.24,24.49a.26.26,0,0,0,0,.15.2.2,0,0,0,.1.12,38.94,38.94,0,0,1,6.91,5.37L.57,39.44l4.09,4.24,9-9a39.39,39.39,0,0,1,5.16,7.18.23.23,0,0,0,.12.1A.26.26,0,0,0,19,42L29.7,35.29l.08,0,11.93-7.45a.19.19,0,0,0,.08-.21.17.17,0,0,0-.17-.15" style="fill:#10284a"/><path d="M77,16.8H74.59L70,33.47C68.6,38.3,66,41.39,59.59,41.39h-8c-4.71,0-7.5-1.11-7.5-4.1a14,14,0,0,1,.67-3.5l4.8-17H47.1L49,10H61.34L54.46,34.62h5.18L66.57,10H78.89Z" style="fill:#ffd600"/><path d="M47.85,16.22h1.68a.56.56,0,0,1,.45.23.6.6,0,0,1,.09.52L45.17,34.3a12.05,12.05,0,0,0-.55,3c0,1.51.72,3.52,6.94,3.52h8c5.49,0,8.33-2.18,9.82-7.51l4.65-16.66a.54.54,0,0,1,.53-.42h2l1.55-5.61H67L60.18,34.78a.56.56,0,0,1-.54.42H54.46A.55.55,0,0,1,54,35a.6.6,0,0,1-.09-.52l6.66-23.84H49.44ZM59.59,42h-8c-2,0-8.06,0-8.06-4.68A12.53,12.53,0,0,1,44.1,34l.09-.35,4.59-16.24H47.1a.56.56,0,0,1-.45-.24.59.59,0,0,1-.09-.51l1.92-6.78A.57.57,0,0,1,49,9.45H61.34a.55.55,0,0,1,.45.23.62.62,0,0,1,.09.51L55.21,34h4L66,9.87a.56.56,0,0,1,.54-.42H78.89a.55.55,0,0,1,.45.23.57.57,0,0,1,.09.51L77.57,17a.57.57,0,0,1-.54.43H75L70.48,33.63C68.86,39.48,65.6,42,59.59,42" style="fill:#10284a"/><path d="M102.89,20.53H94.5l1-3.73H90a162.29,162.29,0,0,0-5.09,17.82h5.65L92,29.46h8.8L97.44,41.39H82c-3.57,0-7.09-.51-7.09-4.47A26.61,26.61,0,0,1,76,31.44l3-10.58C81.14,13.44,82.44,10,91.81,10h14Z" style="fill:#ffd600"/><path d="M91.81,10.61c-8.92,0-10.13,3-12.25,10.41l-3,10.58a28.42,28.42,0,0,0-1.06,5.32c0,3.23,2.61,3.89,6.53,3.89H97l3-10.77H92.42l-1.33,4.74a.56.56,0,0,1-.53.42H84.91a.56.56,0,0,1-.44-.22.6.6,0,0,1-.1-.5,162.51,162.51,0,0,1,5.1-17.88.56.56,0,0,1,.53-.38h5.54a.56.56,0,0,1,.45.23.62.62,0,0,1,.09.51l-.83,3h7.22l2.62-9.34ZM97.44,42H82c-2.48,0-7.65,0-7.65-5a26.92,26.92,0,0,1,1.11-5.64l3-10.59C80.66,13.1,82.13,9.45,91.81,9.45h14a.55.55,0,0,1,.45.23.59.59,0,0,1,.09.51L103.43,20.7a.56.56,0,0,1-.54.42H94.5a.57.57,0,0,1-.45-.24.61.61,0,0,1-.09-.51l.83-3h-4.4A160.22,160.22,0,0,0,85.63,34h4.5l1.34-4.74a.56.56,0,0,1,.53-.42h8.81a.57.57,0,0,1,.45.24.61.61,0,0,1,.09.51L98,41.55a.56.56,0,0,1-.54.42" style="fill:#10284a"/><path d="M133.05,19h-8.8l.78-2.81h-5.7l-1.71,6.08h6.68c3.47,0,7.35.19,7.35,4.24a12.48,12.48,0,0,1-.62,3.59l-1.19,4.24C128.55,39,126.22,42,119.69,42h-17l2.74-9.9h9.43L114,35.2h5.69l1.87-6.54h-7.1c-3.73,0-6.94-.37-6.94-4.42a9.26,9.26,0,0,1,.42-2.63l1.45-5.21c1.29-4.7,4.3-6.95,9.84-6.95h16.51Z" style="fill:#10284a"/><path d="M145.85,33.54h-5l-.93,3.23H145ZM154.29,42H143.52l.72-2.58-4,2.58h-4.66c-1.5,0-3.78,0-3.78-2.53a8.57,8.57,0,0,1,.26-1.8l1.09-4.14c.83-3.14,3.42-4,6-4h7.81l1.09-4.1H143.1L142.38,28h-7.61l.67-2.58c1-3.69,3.21-5.12,6.47-5.12h10.72c2.28,0,4.4.6,4.4,3.14a5,5,0,0,1-.21,1.47l-3.15,11.24h2.27Z" style="fill:#10284a"/><path d="M182.82,36.12,181.16,42H170.23l4.46-15.85h-4.25L166,42h-8.7l4.45-15.85h-2.12l1.6-5.85H172.1l-.93,3.23,4.71-3.23h2.79c2.23,0,5.18.14,5.18,2.77a12.43,12.43,0,0,1-.57,3.08l-2.85,10Z" style="fill:#10284a"/><path d="M203.94,16.22l-5.28,19h4.92c2-6.26,3.83-12.62,5.18-19Zm7.25-6.77c3.73,0,7.61.13,7.61,4.47a36.46,36.46,0,0,1-1.66,7.87l-2.43,8.57C212.33,38.7,211,42,202.44,42H184.78l1.87-6.77H189l5.33-19H192l1.92-6.77Z" style="fill:#10284a"/><path d="M227,17.51a3.6,3.6,0,0,1-3.78-3.36,3.8,3.8,0,0,1,7.55,0A3.6,3.6,0,0,1,227,17.51m-.42,18.61h2.07L227.09,42H214.35l1.6-5.85h2l2.85-10h-2.33l1.61-5.85h11Z" style="fill:#10284a"/><path d="M242.83,25.48c-.31,1-.57,2-.83,3.09h3.21l.88-3.09Zm9.11,8.85L251,37.5c-1,3.6-2.54,4.47-6.89,4.47h-9c-2.27,0-4.35-.46-4.35-2.85a25.4,25.4,0,0,1,1-5.21l2.23-8.06c1-3.55,2.53-5.58,6.93-5.58h8c2.85,0,5.33.28,5.33,3.09a5.87,5.87,0,0,1-.26,1.61l-2.12,7.65H240.76c-.37,1.38-.78,2.77-1,4.15h3.21l.67-2.44Z" style="fill:#10284a"/><path d="M265.93,26.12a84.41,84.41,0,0,0-2.79,10h4.09l2.79-10Zm15,0h-2.33l-5.29,18.8c-.93,3.27-2,5.67-6.42,5.67H256.4c-2.07,0-4.5-.18-4.5-2.21a10.11,10.11,0,0,1,.47-2.21l.72-2.49H261l-.57,2.07h4.09l1.82-6.45-4,2.67h-4.66c-2,0-3.73-.37-3.73-2.48A21.24,21.24,0,0,1,255,34.37l1.86-6.86c1.71-6.32,3.37-7.24,7.2-7.24h4.35l2.28,2.54.72-2.54h11.13Z" style="fill:#10284a"/><path d="M291,26.12c-1,3.32-1.81,6.64-2.58,10h3.72c.94-3.27,1.82-6.68,2.64-10ZM284.52,42c-2.95,0-4.92-.69-4.92-3.31a22,22,0,0,1,.93-5.12l1.25-4.93c1.24-5,2.38-8.34,8.49-8.34h7.92c3.42,0,5.38.83,5.38,3.41a15.81,15.81,0,0,1-.56,3.64l-1.61,6.31c-1.14,4.47-2.07,8.34-8.28,8.34Z" style="fill:#10284a"/></svg>